<?xml version="1.0" standalone="no"?>
<!DOCTYPE svg PUBLIC "-//W3C//DTD SVG 20010904//EN"
 "http://www.w3.org/TR/2001/REC-SVG-20010904/DTD/svg10.dtd">
<svg version="1.0" xmlns="http://www.w3.org/2000/svg"
 width="32.000000pt" height="32.000000pt" viewBox="0 0 32.000000 32.000000"
 preserveAspectRatio="xMidYMid meet">

<g transform="translate(0.000000,32.000000) scale(0.100000,-0.100000)"
fill="#000000" stroke="none">
<path d="M74 266 c-3 -8 -4 -25 -2 -38 3 -20 9 -23 51 -26 l47 -3 0 -39 0 -39
-47 -3 c-48 -3 -48 -3 -48 -38 0 -35 0 -35 45 -35 45 0 45 0 48 37 3 36 4 37
50 40 46 3 47 3 47 38 0 35 -1 35 -47 38 -46 3 -47 4 -50 40 -3 36 -4 37 -46
40 -30 2 -44 -1 -48 -12z"/>
</g>
</svg>
